<?xml version="1.0" encoding="UTF-8"?>
<svg id="Capa_2" data-name="Capa 2" xmlns="http://www.w3.org/2000/svg" xmlns:xlink="http://www.w3.org/1999/xlink" viewBox="0 0 43.28 42.76">
  <defs>
    <style>
      .cls-1 {
        fill: url(#Degradado_sin_nombre_186);
      }

      .cls-2 {
        fill: url(#Degradado_sin_nombre_186-3);
      }

      .cls-3 {
        fill: url(#Degradado_sin_nombre_186-2);
      }
    </style>
    <radialGradient id="Degradado_sin_nombre_186" data-name="Degradado sin nombre 186" cx="7.12" cy="1.95" fx="-.78" fy="1.95" r="33.77" gradientUnits="userSpaceOnUse">
      <stop offset=".21" stop-color="#fff"/>
      <stop offset=".28" stop-color="#f6f7ff"/>
      <stop offset=".41" stop-color="#dde3ff"/>
      <stop offset=".57" stop-color="#b5c2ff"/>
      <stop offset=".75" stop-color="#7e95ff"/>
      <stop offset=".96" stop-color="#395cff"/>
      <stop offset="1" stop-color="#2a50ff"/>
    </radialGradient>
    <radialGradient id="Degradado_sin_nombre_186-2" data-name="Degradado sin nombre 186" cx="-2.31" cy="3.88" fx="-2.31" fy="3.88" r="34.41" xlink:href="#Degradado_sin_nombre_186"/>
    <radialGradient id="Degradado_sin_nombre_186-3" data-name="Degradado sin nombre 186" cx="2.51" cy="-3.18" fx="2.51" fy="-3.18" r="44.25" xlink:href="#Degradado_sin_nombre_186"/>
  </defs>
  <g id="Capa_2-2" data-name="Capa 2">
    <g>
      <path class="cls-1" d="M0,20.51c-.12-.08,3.5-9.64,13-16,2.01-1.35,4.83-3.19,9-4,1.93-.37,8.14-1.61,14,2,1.44.89,5.95,3.66,7,9,.19.95,1.14,5.77-2,9-2.51,2.58-6.85,3.37-10,2-4.23-1.84-3.67-6.42-10-11-1.54-1.11-2.72-1.68-4-2-3.82-.96-7.14.58-8,1-3.18,1.54-4.96,4.07-7.9,8.26C.16,20.12,0,20.51,0,20.51Z"/>
      <path class="cls-3" d="M0,20.51s.69-.5,2-1c1.66-.64,3.12-1.2,5-1,.55.06,1.74.2,3,1,0,0,1.15.73,2,2,1.93,2.87,2.58,9.39-1,12-.18.13-1.83,1.3-4,1-2.47-.34-4.7-2.45-5-5-.22-1.85.58-3.92,2-5,1.21-.92,2.43-.8,3-2,.03-.05.52-1.13,0-2-.45-.76-1.4-.91-2-1C2.34,19.11.03,20.58,0,20.51Z"/>
      <path class="cls-2" d="M0,20.51s4.97-7.14,12-8c7.43-.91,13.63,5.57,15,7,1.48,1.54,8.36,8.73,6,16-.15.45-1.38,4.07-5,6-4.72,2.52-11.47,1.1-14-3-1.49-2.42-1.12-5.15-1-6,.84-6.04,6.32-7.44,6-12-.15-2.15-1.52-4.05-3-5-3.98-2.57-9.99.86-12,2C1.37,19.01.02,20.53,0,20.51Z"/>
    </g>
  </g>
</svg>